<?xml version="1.0" standalone="no"?>
<!DOCTYPE svg PUBLIC "-//W3C//DTD SVG 20010904//EN"
 "http://www.w3.org/TR/2001/REC-SVG-20010904/DTD/svg10.dtd">
<svg version="1.0" xmlns="http://www.w3.org/2000/svg"
 width="1800.000000pt" height="1800.000000pt" viewBox="0 0 1800.000000 1800.000000"
 preserveAspectRatio="xMidYMid meet">
<metadata>
Created by potrace 1.11, written by Peter Selinger 2001-2013
</metadata>
<g transform="translate(0.000000,1800.000000) scale(0.100000,-0.100000)"
fill="#000000" stroke="none">
<path d="M8515 17779 c-1160 -61 -2333 -367 -3380 -880 -2179 -1067 -3826
-2990 -4541 -5302 -326 -1055 -450 -2179 -364 -3292 186 -2383 1336 -4584
3195 -6110 1015 -834 2231 -1440 3499 -1745 1627 -391 3342 -314 4914 222
1587 540 2983 1522 4037 2838 940 1173 1563 2568 1804 4040 388 2365 -190
4776 -1599 6670 -458 615 -989 1168 -1570 1635 -1445 1160 -3200 1829 -5050
1925 -222 11 -722 11 -945 -1z m994 -658 c101 -5 187 -13 191 -18 5 -4 83
-237 173 -518 91 -280 223 -687 293 -903 70 -216 125 -394 123 -396 -6 -6
-409 14 -454 22 l-40 8 -45 154 -45 155 -230 11 c-127 6 -277 13 -333 15
l-104 4 -60 -150 c-33 -82 -61 -151 -62 -152 -4 -4 -424 19 -457 25 l-36 7
114 260 c63 143 234 532 380 865 146 333 269 610 274 616 5 6 35 9 71 7 35 -2
146 -7 247 -12z m-1689 -98 c0 -9 70 -403 156 -876 109 -607 152 -862 144
-867 -15 -9 -439 -84 -444 -79 -3 2 -59 304 -125 669 -66 366 -138 760 -159
875 -21 116 -37 212 -35 215 6 6 392 78 431 79 24 1 32 -3 32 -16z m3530 -222
c175 -57 205 -70 202 -86 -2 -10 -98 -308 -213 -663 -116 -355 -207 -648 -202
-652 4 -4 123 -44 263 -89 140 -46 256 -84 257 -85 3 -3 -111 -349 -120 -362
-4 -8 -167 41 -489 146 -426 138 -483 159 -480 176 2 10 64 204 137 429 250
769 377 1160 391 1208 10 33 20 47 32 46 9 0 109 -30 222 -68z m-4624 -299
c56 -136 100 -248 98 -250 -1 -2 -35 9 -76 24 -62 23 -89 27 -173 27 -84 0
-111 -4 -168 -26 -221 -86 -349 -293 -317 -516 29 -205 166 -372 349 -425 78
-23 213 -21 286 4 132 45 236 136 295 257 19 40 37 72 40 72 3 1 51 -112 108
-249 l102 -250 -41 -38 c-288 -261 -644 -344 -981 -228 -144 49 -245 113 -364
231 -184 182 -271 377 -281 635 -6 147 14 267 67 393 144 346 495 584 865 586
l90 1 101 -248z m6215 -366 c122 -72 194 -121 193 -130 -1 -8 -158 -281 -349
-606 -190 -326 -345 -593 -343 -595 2 -2 109 -65 238 -140 129 -76 236 -139
238 -140 6 -5 -193 -335 -202 -335 -15 0 -875 504 -876 513 0 5 201 351 446
770 246 419 448 765 451 770 2 4 6 7 7 7 2 0 91 -52 197 -114z m-8131 -451
c69 -102 295 -436 503 -742 208 -306 374 -559 370 -563 -4 -4 -90 -63 -191
-131 -158 -106 -184 -121 -196 -108 -19 19 -985 1444 -991 1461 -3 8 65 60
183 140 103 70 189 127 192 127 3 0 61 -83 130 -184z m9310 -314 c85 -79 165
-154 178 -166 l23 -21 -41 -260 c-22 -142 -42 -274 -45 -291 -3 -18 -2 -33 2
-33 4 0 134 29 287 64 l279 65 53 -47 c151 -135 351 -328 345 -333 -3 -3 -253
-57 -555 -120 l-549 -113 -291 -312 c-160 -172 -295 -313 -299 -313 -9 -1
-329 296 -335 311 -2 4 129 149 291 321 l294 314 7 64 c4 35 39 284 77 553 38
270 69 494 69 500 0 11 6 6 210 -183z m-10250 -336 l135 -135 -200 -200 -200
-200 105 -105 105 -105 180 180 180 180 140 -140 140 -140 -180 -180 -179
-179 173 -178 c96 -98 207 -211 248 -252 l74 -75 -165 -165 -165 -165 -628
633 c-345 349 -629 637 -631 641 -4 9 710 719 723 720 6 0 71 -61 145 -135z
m5590 -345 c450 -38 898 -130 1335 -274 287 -95 479 -175 755 -312 1040 -518
1878 -1317 2439 -2327 113 -202 225 -437 215 -447 -7 -7 -2383 -1074 -2553
-1147 l-34 -15 79 -42 c143 -76 353 -225 500 -353 l72 -63 1085 485 c596 267
1089 485 1095 485 12 0 37 -77 87 -274 36 -141 97 -427 92 -432 -1 -2 -395
-179 -875 -393 -481 -215 -880 -394 -888 -399 -11 -6 48 -69 246 -260 143
-139 265 -252 271 -252 5 0 301 131 658 290 356 160 654 290 661 290 10 0 12
-68 6 -347 -3 -192 -9 -370 -14 -398 l-7 -49 -302 -135 -302 -135 29 -36 c46
-58 67 -113 136 -365 36 -132 66 -240 67 -241 1 -1 51 20 111 47 60 27 113 49
117 49 23 0 -145 -535 -241 -770 -29 -69 -54 -132 -56 -140 -3 -10 -236 -119
-572 -269 -536 -240 -2118 -948 -5119 -2290 -727 -325 -1330 -591 -1341 -591
-25 0 -254 83 -417 151 -142 60 -475 220 -475 229 0 3 71 37 158 76 647 288
3688 1649 3692 1652 6 4 -1 10 -202 162 -144 109 -420 300 -433 300 -3 0 -882
-392 -1953 -871 -1071 -479 -1952 -873 -1958 -876 -33 -13 -629 496 -607 518
7 6 1773 798 3188 1429 226 100 414 186 418 190 13 11 -151 39 -306 52 -224
19 -478 -11 -685 -81 -48 -16 -186 -78 -307 -138 -420 -208 -587 -232 -906
-130 l-76 24 -899 -403 c-494 -222 -906 -403 -914 -404 -36 -1 -436 579 -414
600 5 4 140 67 299 138 160 71 489 218 732 327 l441 197 -71 67 c-99 93 -226
238 -320 364 -44 59 -85 106 -91 103 -6 -2 -303 -135 -660 -295 -357 -160
-652 -291 -656 -291 -21 0 -200 480 -275 740 -167 578 -233 1081 -222 1685 6
309 20 493 57 740 281 1851 1426 3432 3089 4264 697 349 1431 547 2226 601
156 10 621 5 795 -10z m-6779 -936 c82 -52 149 -100 149 -105 0 -6 -63 -108
-140 -228 -76 -119 -142 -224 -145 -232 -8 -21 236 -173 251 -156 6 7 66 99
134 205 68 107 129 196 135 198 7 3 85 -41 173 -97 l160 -102 -29 -46 c-15
-25 -77 -122 -137 -216 l-110 -170 27 -17 c14 -9 145 -93 291 -187 150 -96
265 -175 264 -183 -2 -20 -225 -369 -239 -375 -11 -4 -1474 922 -1501 950 -8
9 49 106 223 377 129 201 252 393 274 428 28 44 45 62 55 58 8 -3 82 -49 165
-102z m12364 -343 c445 -227 385 -179 543 -441 97 -162 304 -566 386 -754 238
-547 435 -1152 530 -1626 99 -496 153 -1227 138 -1858 l-5 -223 -48 -24 c-26
-14 -50 -29 -54 -35 -3 -5 12 -29 34 -53 l40 -43 -18 -159 c-25 -217 -48 -267
-137 -301 -61 -23 -264 -15 -389 15 -222 54 -265 112 -244 326 6 55 16 131 22
169 l12 68 45 17 c65 24 63 52 -6 102 -19 13 -20 21 -13 89 16 161 21 529 10
735 -36 649 -128 1130 -343 1785 -173 527 -415 1075 -642 1454 l-95 158 -81
382 c-45 209 -84 389 -86 399 -3 9 -2 17 3 17 4 0 183 -90 398 -199z m-12799
-1402 c304 -42 569 -225 708 -489 70 -134 97 -239 103 -403 6 -159 -5 -248
-49 -387 -90 -283 -260 -487 -503 -606 -383 -186 -858 -85 -1137 243 -243 285
-285 709 -108 1089 183 393 571 611 986 553z m-214 -2687 c88 -25 111 -41 139
-99 22 -44 24 -63 27 -230 l4 -182 -42 -21 c-22 -11 -44 -28 -47 -37 -6 -16
19 -43 62 -69 16 -9 20 -30 26 -150 28 -507 146 -1104 319 -1616 249 -734 752
-1664 1192 -2205 59 -72 60 -74 195 -458 74 -213 133 -388 131 -390 -4 -4
-254 85 -725 256 l-112 41 -84 101 c-327 396 -649 909 -932 1489 -302 619
-459 1079 -589 1730 -67 334 -142 848 -162 1104 l-6 91 46 32 c25 18 46 36 46
41 0 4 -19 24 -42 44 l-43 35 -3 149 c-6 221 15 289 99 332 59 31 131 39 289
35 102 -3 165 -10 212 -23z m13345 -1784 c91 -29 167 -58 170 -64 2 -7 -30
-119 -72 -250 -43 -132 -78 -243 -79 -248 -1 -8 81 -37 251 -90 21 -7 26 5 98
231 43 131 78 239 80 241 3 3 356 -107 362 -112 1 -1 -31 -108 -72 -236 -41
-129 -74 -239 -72 -244 4 -13 270 -97 278 -88 4 4 41 117 84 252 43 135 79
246 80 248 3 3 357 -107 363 -113 3 -3 -294 -935 -300 -941 -2 -2 -229 69
-503 157 -275 88 -646 207 -824 264 -178 57 -325 106 -328 108 -4 4 283 910
294 930 7 12 18 9 190 -45z m-23 -1780 c375 -177 732 -345 794 -374 l112 -53
-58 -83 c-32 -46 -91 -129 -131 -185 l-72 -103 -449 225 c-248 124 -450 223
-450 219 0 -3 35 -60 79 -127 43 -67 173 -270 289 -450 l212 -328 -52 -72
c-28 -40 -51 -73 -52 -74 -1 -1 -71 15 -156 37 -462 114 -872 212 -875 208 -3
-2 157 -157 355 -344 198 -186 360 -342 360 -347 0 -4 -57 -88 -126 -187
l-126 -181 -202 198 c-722 708 -1056 1038 -1056 1043 0 15 253 365 263 364 7
-1 218 -54 470 -119 251 -64 461 -115 466 -113 7 2 -210 323 -495 730 l-53 76
126 181 c70 100 131 181 137 181 5 0 316 -145 690 -322z m-1694 -62 c0 -3 -43
-62 -96 -132 -321 -427 -704 -810 -1129 -1129 -814 -612 -1805 -1004 -2815
-1114 -311 -34 -751 -41 -1055 -16 -99 8 -189 15 -200 15 -12 0 -15 3 -10 9 6
5 1079 487 2385 1071 1306 585 2492 1115 2635 1180 241 109 285 127 285 116z
m-212 -1582 c85 -17 203 -64 289 -116 86 -51 216 -180 282 -278 105 -157 151
-312 151 -508 0 -252 -95 -471 -284 -657 -140 -137 -325 -243 -502 -287 -123
-31 -323 -31 -439 0 -268 72 -481 253 -605 515 -47 98 -67 172 -80 290 -26
249 54 491 232 698 143 167 399 312 616 349 82 14 259 11 340 -6z m-8177 -297
c137 -102 193 -148 191 -160 -6 -37 -490 -1768 -495 -1773 -5 -5 -371 259
-382 275 -2 4 16 72 40 150 25 79 45 147 45 151 0 5 -102 84 -227 176 -126 92
-242 178 -259 191 l-31 23 -124 -86 c-68 -48 -130 -87 -136 -88 -7 0 -98 62
-203 138 -166 122 -188 141 -172 151 9 7 253 164 542 350 289 186 631 407 760
491 129 84 240 153 246 153 5 1 98 -63 205 -142z m1139 -610 l175 -52 -2 -170
c-1 -94 -7 -351 -14 -573 -7 -221 -10 -404 -7 -407 2 -2 47 57 99 133 313 450
562 808 569 815 4 4 84 -15 178 -44 l170 -52 6 -131 c3 -72 10 -333 16 -581 6
-247 13 -451 16 -454 6 -6 -21 -47 297 469 157 256 292 474 300 484 14 19 20
18 233 -46 120 -36 219 -69 221 -74 1 -5 -136 -220 -306 -479 -170 -259 -391
-595 -492 -748 -100 -153 -186 -280 -190 -283 -7 -4 -257 67 -415 117 l-30 9
-12 383 c-18 542 -24 668 -33 665 -4 -2 -136 -185 -294 -408 -158 -223 -295
-413 -305 -423 -17 -18 -24 -17 -231 45 l-214 64 -3 912 -2 911 47 -14 c27 -8
127 -39 223 -68z m5212 -317 c-2 -107 -5 -196 -6 -197 -2 -2 -36 2 -77 8 -136
20 -280 -28 -336 -112 -48 -74 -28 -165 44 -195 43 -18 120 -18 283 3 256 32
414 -8 531 -135 129 -139 191 -342 155 -512 -24 -113 -68 -192 -161 -286 -168
-170 -433 -275 -692 -273 -91 0 -189 10 -196 20 -5 7 18 397 23 402 3 3 30 -1
60 -9 30 -8 100 -15 155 -15 213 -1 355 88 355 222 0 56 -31 107 -80 131 -44
23 -108 23 -324 1 -141 -14 -182 -14 -240 -4 -186 31 -305 147 -373 359 -44
138 -32 285 33 414 37 72 141 176 230 230 142 85 390 149 559 145 l60 -2 -3
-195z m-1472 -227 c0 -5 7 -89 15 -187 8 -99 13 -181 12 -182 -1 -1 -121 -11
-266 -22 -145 -12 -265 -22 -266 -24 -6 -6 17 -273 24 -280 3 -4 116 1 251 12
134 10 246 17 248 15 7 -6 34 -355 29 -368 -3 -8 -77 -18 -248 -30 -134 -10
-246 -21 -248 -23 -6 -6 15 -283 22 -290 3 -4 122 3 264 14 142 12 261 18 265
14 4 -4 13 -89 20 -189 l13 -183 -30 -4 c-16 -3 -93 -10 -170 -16 -77 -6 -250
-19 -385 -30 -135 -10 -281 -21 -325 -22 l-80 -3 -17 220 c-19 242 -79 1010
-103 1314 -8 107 -14 195 -13 197 3 2 170 15 613 49 110 9 209 17 220 19 40 7
155 6 155 -1z"/>
<path d="M9299 16296 l-116 -284 31 -6 c17 -3 111 -8 208 -12 l178 -7 -13 44
c-7 24 -47 158 -88 296 -41 139 -76 253 -79 253 -3 0 -57 -128 -121 -284z"/>
<path d="M10052 12779 c-56 -469 -100 -854 -98 -857 3 -2 104 35 226 82 122
47 226 86 232 86 8 0 9 -247 5 -867 -4 -508 -3 -860 3 -848 5 11 75 367 156
790 81 424 190 995 243 1270 53 275 94 501 91 503 -4 1 -150 -54 -326 -122
-175 -69 -321 -122 -325 -118 -4 6 -51 471 -86 865 -3 37 -9 67 -12 67 -4 0
-53 -383 -109 -851z"/>
<path d="M4967 12150 c-86 -15 -190 -51 -282 -98 -126 -65 -255 -192 -313
-309 -57 -116 -76 -208 -70 -346 13 -284 146 -510 518 -878 l188 -186 -57 -94
c-32 -52 -95 -152 -141 -224 -180 -278 -230 -481 -216 -869 l7 -179 63 -191
c178 -536 383 -941 657 -1296 103 -134 343 -370 480 -473 324 -241 680 -401
976 -438 84 -10 112 -10 198 5 150 25 246 58 490 169 237 108 401 146 670 154
516 17 1044 -169 1673 -589 314 -210 484 -341 671 -522 174 -167 255 -232 346
-279 115 -58 237 -73 346 -41 66 19 180 79 251 132 29 22 328 228 663 458
1210 829 1920 1322 1966 1366 25 22 29 34 29 78 0 89 -84 454 -131 573 -15 36
-69 82 -115 97 -36 12 -151 10 -184 -4 -24 -10 -284 222 -775 689 -404 384
-668 622 -875 787 -125 100 -348 245 -465 303 -138 69 -144 68 -520 -34 -241
-65 -399 -101 -443 -101 -27 0 -35 10 -104 138 -42 75 -140 259 -219 407 -222
421 -342 620 -508 840 -99 132 -163 193 -317 305 -71 52 -176 129 -233 172
-400 302 -812 445 -1177 408 -335 -33 -630 -174 -1040 -495 -76 -60 -202 -158
-279 -219 -186 -145 -356 -257 -490 -322 -60 -30 -116 -54 -123 -54 -7 0 38
34 98 75 61 41 146 103 188 137 80 64 252 232 252 246 0 5 -26 16 -57 26 -127
40 -295 131 -528 286 -496 330 -788 437 -1068 390z m3566 -281 c50 -11 105
-18 121 -15 55 11 449 -196 634 -333 222 -164 334 -331 412 -609 37 -131 60
-249 105 -539 60 -390 114 -619 179 -767 21 -47 35 -62 86 -95 34 -22 87 -50
119 -62 69 -26 214 -36 290 -20 29 6 177 59 328 117 152 58 336 126 410 151
l134 44 52 -24 c265 -121 866 -608 1605 -1301 353 -331 397 -374 392 -379 -16
-15 -2098 -1391 -2110 -1394 -14 -3 -169 116 -910 706 -660 525 -1400 1127
-1400 1140 0 3 22 20 48 37 26 17 124 91 217 164 94 73 213 163 266 200 232
166 280 281 160 393 -92 87 -272 156 -586 227 -93 22 -305 72 -470 113 -184
46 -416 95 -600 127 -340 59 -476 88 -614 131 -190 61 -322 145 -452 288 -116
129 -193 187 -346 261 -139 67 -223 129 -223 164 0 8 28 34 63 58 170 122
1043 669 1847 1161 69 42 131 77 138 77 7 0 54 -9 105 -21z m-3716 -113 c28
-14 112 -65 185 -114 73 -50 187 -120 253 -157 76 -43 144 -90 185 -129 36
-34 134 -123 218 -200 l154 -138 -39 -40 c-21 -22 -58 -54 -82 -70 -37 -26
-374 -208 -385 -208 -2 0 -28 33 -59 73 -30 40 -121 136 -203 213 -289 272
-387 370 -449 452 -94 126 -93 123 -63 185 72 147 163 189 285 133z m1074
-1226 c296 -60 545 -209 981 -584 65 -56 118 -108 118 -116 0 -15 -20 -50 -77
-135 -18 -27 -33 -62 -33 -77 0 -15 -3 -28 -6 -28 -8 0 -57 40 -339 275 -273
228 -360 296 -495 385 -177 116 -412 220 -569 251 -34 6 -59 14 -56 17 13 13
158 30 263 31 79 1 145 -5 213 -19z m799 -1290 c0 -5 -17 -66 -37 -135 -20
-69 -34 -127 -32 -130 6 -5 376 -22 1332 -61 92 -4 166 -8 164 -11 -2 -2 -474
-46 -1048 -98 -574 -52 -1059 -96 -1076 -99 -26 -4 -33 -1 -32 12 0 9 24 96
53 192 29 96 50 178 47 181 -3 4 -181 26 -396 49 -214 23 -403 45 -420 49 -17
4 131 13 335 20 201 7 498 19 660 26 394 16 450 17 450 5z m1749 -734 c-17
-15 -1762 -1248 -1772 -1251 -8 -4 -26 54 -56 183 -25 103 -47 190 -51 194 -3
4 -179 -69 -390 -162 -211 -93 -385 -168 -386 -167 -3 3 1217 776 1231 779 6
2 26 -59 45 -134 19 -76 37 -138 40 -137 3 0 302 157 665 349 572 302 695 365
674 346z m637 -382 c451 -404 952 -834 1682 -1448 l342 -288 -34 -39 c-22 -23
-42 -60 -52 -96 -9 -32 -18 -59 -19 -61 -4 -4 -189 130 -355 257 -177 136
-460 367 -790 646 -618 523 -906 755 -1162 939 -60 43 -108 84 -108 92 0 25
26 67 67 106 46 45 156 128 164 125 4 -1 123 -106 265 -233z m4732 -176 c55
-60 119 -332 93 -399 -5 -15 -38 -46 -73 -71 -35 -24 -613 -430 -1286 -901
-960 -674 -1228 -857 -1252 -857 -60 0 -90 62 -90 188 0 133 48 300 107 368
26 31 1126 805 1751 1232 421 288 693 462 723 462 3 0 15 -10 27 -22z"/>
<path d="M11720 11674 c-492 -436 -492 -437 -464 -448 16 -7 95 -36 177 -66
81 -30 146 -58 145 -61 -2 -4 -194 -220 -428 -480 -234 -260 -429 -479 -434
-488 -5 -9 19 7 55 35 35 28 392 302 793 609 427 327 724 561 715 564 -18 5
-425 156 -461 170 l-28 10 181 248 c253 346 251 343 246 343 -2 0 -226 -196
-497 -436z"/>
<path d="M14826 13445 c-8 -31 -49 -59 -76 -52 -11 3 -20 2 -20 -1 -1 -14 143
-527 150 -535 7 -8 500 310 500 322 0 3 -53 34 -117 67 -65 34 -188 98 -274
143 l-157 81 -6 -25z"/>
<path d="M15130 12855 c-58 -35 -109 -66 -113 -67 -5 -2 13 -39 41 -83 202
-327 448 -877 618 -1379 214 -631 319 -1138 364 -1755 13 -185 13 -703 0 -845
-6 -60 -9 -111 -6 -113 5 -5 289 -44 292 -40 2 1 9 43 16 92 21 142 17 775 -5
985 -117 1087 -442 2147 -905 2960 -63 110 -188 310 -194 310 -2 0 -50 -30
-108 -65z"/>
<path d="M15930 8408 c-1 -7 -9 -78 -20 -158 -12 -94 -15 -150 -9 -162 57
-105 394 -167 535 -98 l49 25 18 159 c10 87 17 160 15 161 -2 2 -120 20 -263
39 -143 20 -275 39 -292 41 -23 4 -33 2 -33 -7z"/>
<path d="M1995 11516 c-164 -41 -299 -167 -357 -333 -18 -54 -23 -89 -23 -168
0 -125 26 -205 99 -302 90 -118 211 -181 367 -190 145 -9 273 42 377 151 99
102 142 211 142 356 0 147 -44 256 -144 356 -120 120 -299 170 -461 130z"/>
<path d="M1652 9254 c-63 -17 -102 -36 -123 -60 -13 -16 -15 -44 -11 -176 l4
-158 112 0 c62 0 195 -3 294 -7 l182 -6 0 165 c0 158 -1 165 -22 185 -56 51
-144 73 -286 72 -53 0 -121 -7 -150 -15z"/>
<path d="M1743 8473 c33 -994 519 -2400 1182 -3418 136 -210 404 -562 436
-573 5 -2 48 27 96 65 48 37 94 73 101 79 12 9 3 26 -55 100 -402 511 -852
1348 -1098 2040 -198 556 -329 1197 -361 1762 l-7 122 -150 0 -150 0 6 -177z"/>
<path d="M3478 4397 c-125 -106 -227 -194 -227 -197 -1 -3 126 -52 282 -109
155 -57 288 -106 295 -108 7 -3 12 4 12 19 0 28 26 56 63 66 l25 7 -105 250
c-58 138 -108 253 -111 257 -4 4 -109 -80 -234 -185z"/>
<path d="M13091 3654 c-233 -63 -397 -309 -361 -541 28 -176 150 -324 318
-385 84 -31 235 -30 317 2 135 52 233 141 293 268 33 68 37 87 40 173 6 149
-29 248 -126 351 -92 99 -208 148 -344 147 -46 0 -107 -7 -137 -15z"/>
<path d="M4714 3234 c-126 -86 -235 -162 -242 -169 -11 -10 16 -33 139 -124
84 -62 157 -115 163 -117 7 -2 36 79 74 203 34 115 73 243 86 286 14 42 21 77
17 77 -5 0 -111 -70 -237 -156z"/>
</g>
</svg>
