<?xml version="1.0" encoding="UTF-8" standalone="no"?><!DOCTYPE svg PUBLIC "-//W3C//DTD SVG 1.1//EN" "http://www.w3.org/Graphics/SVG/1.1/DTD/svg11.dtd"><svg width="100%" height="100%" viewBox="0 0 3137 3137" version="1.1" xmlns="http://www.w3.org/2000/svg" xmlns:xlink="http://www.w3.org/1999/xlink" xml:space="preserve" xmlns:serif="http://www.serif.com/" style="fill-rule:evenodd;clip-rule:evenodd;stroke-linejoin:round;stroke-miterlimit:2;"><g><path d="M3136.61,1568.3c0,866.154 -702.15,1568.3 -1568.3,1568.3c-866.15,0 -1568.3,-702.15 -1568.3,-1568.3c0,-866.15 702.154,-1568.3 1568.3,-1568.3c866.154,0 1568.3,702.154 1568.3,1568.3Z" style="fill:#fff;fill-rule:nonzero;"/><path d="M3075.26,1568.3c0,832.267 -674.679,1506.95 -1506.96,1506.95c-832.267,0 -1506.96,-674.687 -1506.96,-1506.95c0,-832.258 674.691,-1506.94 1506.96,-1506.94c832.283,0 1506.96,674.684 1506.96,1506.94Z" style="fill-rule:nonzero;"/><g><path d="M363.638,1304.42c11.77,3.383 23.266,4.279 34.487,2.688c11.225,-1.592 21.583,-5.13 31.092,-10.617c9.504,-5.483 17.733,-12.679 24.679,-21.592c6.954,-8.904 12.037,-18.987 15.271,-30.241c3.229,-11.246 4.262,-22.488 3.1,-33.73c-1.167,-11.237 -4.296,-21.766 -9.409,-31.591c-5.112,-9.821 -11.995,-18.384 -20.662,-25.692c-8.667,-7.296 -18.888,-12.646 -30.663,-16.025c-11.775,-3.383 -23.271,-4.275 -34.491,-2.683c-11.221,1.6 -21.6,5.2 -31.146,10.812c-9.538,5.621 -17.779,12.883 -24.733,21.784c-6.946,8.916 -12.042,18.995 -15.267,30.241c-3.238,11.254 -4.267,22.504 -3.109,33.734c1.171,11.241 4.326,21.708 9.467,31.395c5.15,9.696 12.058,18.192 20.721,25.492c8.671,7.308 18.887,12.646 30.663,16.025Zm-23.105,80.463c-21.979,-6.317 -41.287,-16.246 -57.929,-29.809c-16.637,-13.554 -29.962,-29.558 -39.954,-48.008c-10.004,-18.446 -16.108,-38.829 -18.342,-61.133c-2.237,-22.309 0.105,-45.496 7.013,-69.567c6.837,-23.808 17.142,-44.642 30.908,-62.5c13.771,-17.854 29.792,-32.017 48.096,-42.484c18.3,-10.462 38.1,-17.025 59.396,-19.687c21.3,-2.662 42.942,-0.842 64.917,5.467c21.979,6.312 41.291,16.254 57.929,29.808c16.645,13.558 29.941,29.625 39.9,48.204c9.958,18.579 16.037,39.092 18.229,61.525c2.191,22.442 -0.125,45.567 -6.963,69.375c-6.912,24.075 -17.237,44.971 -30.962,62.696c-13.725,17.725 -29.721,31.754 -47.983,42.083c-18.263,10.338 -38.038,16.838 -59.342,19.496c-21.296,2.667 -42.938,0.842 -64.913,-5.466Z" style="fill:#fff;fill-rule:nonzero;"/><path d="M512.775,770.608l-51.896,81.2l43.354,27.705l47.275,-73.971l57.117,36.5l-47.279,73.975l101.841,65.087l-43.1,67.442l-259.429,-165.804l95,-148.638l57.117,36.504Z" style="fill:#fff;fill-rule:nonzero;"/><path d="M712.204,557.242l-68.383,67.9l36.25,36.504l62.296,-61.854l47.762,48.1l-62.296,61.854l85.163,85.771l-56.796,56.391l-216.937,-218.475l125.183,-124.291l47.758,48.1Z" style="fill:#fff;fill-rule:nonzero;"/><path d="M828.604,390.346l172.838,254.792l-66.234,44.924l-172.833,-254.795l66.229,-44.921Z" style="fill:#fff;fill-rule:nonzero;"/><path d="M1196.95,327.567c-25.687,-13.909 -51.133,-15.713 -76.325,-5.413c-11.091,4.534 -20.533,10.746 -28.337,18.642c-7.8,7.896 -13.684,16.7 -17.655,26.408c-3.966,9.713 -5.954,20.154 -5.945,31.321c0.008,11.179 2.283,22.304 6.812,33.387c4.638,11.338 10.867,21.005 18.684,28.98c7.82,7.983 16.637,14.083 26.454,18.296c9.812,4.229 20.204,6.45 31.179,6.666c10.962,0.225 21.871,-1.883 32.708,-6.312c23.684,-9.684 40.863,-28.463 51.513,-56.35l35.85,87.687l-6.479,5.738c-9.692,8.662 -19.063,15.954 -28.117,21.862c-9.058,5.904 -18.371,10.821 -27.946,14.729c-19.654,8.038 -40.013,12.017 -61.063,11.95c-21.058,-0.058 -41.208,-4.033 -60.45,-11.9c-19.245,-7.862 -36.808,-19.362 -52.695,-34.483c-15.888,-15.121 -28.309,-33.642 -37.275,-55.567c-8.959,-21.916 -13.08,-43.683 -12.363,-65.304c0.721,-21.608 5.242,-41.845 13.571,-60.687c8.321,-18.842 20.042,-35.688 35.146,-50.538c15.104,-14.85 32.604,-26.35 52.512,-34.487c11.338,-4.634 22.979,-7.996 34.917,-10.084c11.946,-2.083 24.987,-3.079 39.146,-2.983l36.158,88.442Z" style="fill:#fff;fill-rule:nonzero;"/><path d="M1364.82,189.196l54.854,302.958l-78.754,14.259l-54.855,-302.959l78.755,-14.258Z" style="fill:#fff;fill-rule:nonzero;"/><path d="M1671.05,370.983l-30.725,-104.175l-41.058,100.55l71.783,3.625Zm18.129,61.83l-114.183,-5.763l-21.054,52.496l-85.229,-4.304l132.57,-301.579l87.271,4.404l101.513,313.404l-85.229,-4.308l-15.659,-54.35Z" style="fill:#fff;fill-rule:nonzero;"/><path d="M2006.62,242.896l-74.163,228.354l91.259,29.642l-20.93,64.466l-167.391,-54.362l95.108,-292.825l76.117,24.725Z" style="fill:#fff;fill-rule:nonzero;"/><path d="M2278.36,365.838l-121.413,207.133l82.787,48.529l-34.275,58.475l-151.833,-88.996l155.679,-265.612l69.055,40.471Z" style="fill:#fff;fill-rule:nonzero;"/><path d="M2382.43,636.817l27.254,-193.617l69.809,65.242l-15.667,100.487l98.904,-22.7l69.809,65.242l-191.63,39.996l-100.933,107.996l-58.471,-54.65l100.925,-107.996Z" style="fill:#fff;fill-rule:nonzero;"/><path d="M845.746,2627.75l30.879,-100.813l-87.075,59.463l56.196,41.35Zm-18.408,59.787l-89.396,-65.787l-45.146,31.246l-66.721,-49.109l268.783,-173.283l68.321,50.283l-85.525,308.159l-66.729,-49.113l16.413,-52.396Z" style="fill:#fff;fill-rule:nonzero;"/><path d="M1155.69,2569.77l-6.021,199.712l116.142,-166.729l59.241,17.742l5.371,203.125l104.75,-170.142l77.846,23.313l-171.192,260.729l-75.946,-22.75l-6.504,-182.771l-105.904,149.113l-75.942,-22.755l0.313,-311.904l77.846,23.317Z" style="fill:#fff;fill-rule:nonzero;"/><path d="M1770.2,2717.23l-92.079,7.25l3.921,49.796l86.941,-6.85l5.167,65.6l-86.938,6.85l4.046,51.371l92.075,-7.25l5.167,65.6l-169.529,13.354l-23.471,-297.967l169.529,-13.354l5.171,65.6Z" style="fill:#fff;fill-rule:nonzero;"/><path d="M2016.55,2649.65c-10.571,-2.646 -20.388,-3.683 -29.446,-3.108c-9.062,0.583 -17.183,2.55 -24.367,5.896c-9.108,4.25 -15.521,9.866 -19.254,16.858c-3.742,6.992 -3.987,13.963 -0.754,20.908c2.237,4.792 5.521,8.071 9.842,9.842c4.329,1.775 9.354,2.708 15.087,2.808c5.734,0.096 11.925,-0.383 18.571,-1.45c6.65,-1.058 13.3,-1.966 19.938,-2.737c26.566,-3.054 48.166,-0.663 64.8,7.175c16.629,7.85 29.758,22.067 39.366,42.658c6.475,13.892 10.004,27.554 10.588,40.992c0.579,13.437 -1.75,26.258 -6.992,38.462c-5.242,12.221 -13.354,23.584 -24.342,34.105c-10.987,10.512 -24.737,19.629 -41.262,27.337c-34.259,15.975 -70.733,20.596 -109.446,13.867l3.704,-70.834c14.892,4.421 28.55,6.513 40.971,6.255c12.417,-0.25 23.658,-2.725 33.721,-7.417c11.496,-5.358 18.825,-11.988 22,-19.883c3.171,-7.888 3.192,-15.192 0.062,-21.9c-1.896,-4.071 -4.258,-7.263 -7.096,-9.592c-2.829,-2.321 -6.516,-3.958 -11.041,-4.913c-4.529,-0.95 -9.983,-1.245 -16.379,-0.887c-6.392,0.358 -14.038,1.012 -22.929,1.946c-10.446,1.375 -20.846,2.362 -31.205,2.962c-10.358,0.613 -20.296,-0.371 -29.8,-2.941c-9.508,-2.563 -18.4,-7.234 -26.666,-14.025c-8.267,-6.784 -15.525,-16.884 -21.779,-30.296c-6.259,-13.413 -9.713,-26.596 -10.367,-39.563c-0.654,-12.962 1.212,-25.204 5.612,-36.737c4.396,-11.521 11.392,-22.15 20.996,-31.884c9.604,-9.725 21.592,-17.941 35.963,-24.641c13.412,-6.259 28.287,-10.934 44.629,-14.038c16.341,-3.1 32.892,-4.187 49.658,-3.258l-2.383,68.033Z" style="fill:#fff;fill-rule:nonzero;"/><path d="M2220.9,2611.82c6.784,9.771 14.875,17.508 24.296,23.192c9.412,5.691 19.379,9.391 29.896,11.095c10.516,1.709 21.121,1.346 31.812,-1.091c10.696,-2.434 20.709,-6.892 30.046,-13.375c9.329,-6.475 17.013,-14.296 23.033,-23.467c6.026,-9.162 10.13,-19.008 12.317,-29.533c2.184,-10.521 2.263,-21.188 0.225,-32.004c-2.037,-10.809 -6.446,-21.105 -13.225,-30.871c-6.783,-9.771 -14.879,-17.496 -24.296,-23.188c-9.416,-5.683 -19.437,-9.346 -30.058,-10.983c-10.621,-1.629 -21.283,-1.225 -31.975,1.204c-10.696,2.438 -20.712,6.896 -30.046,13.375c-9.333,6.475 -17.017,14.3 -23.037,23.463c-6.021,9.175 -10.075,18.979 -12.15,29.425c-2.079,10.454 -2.1,21.079 -0.063,31.887c2.033,10.821 6.446,21.104 13.225,30.871Zm-66.762,46.337c-12.659,-18.237 -21.08,-37.554 -25.275,-57.975c-4.196,-20.404 -4.392,-40.62 -0.584,-60.629c3.8,-20.008 11.713,-39.087 23.721,-57.241c12.017,-18.146 28.004,-34.15 47.984,-48.017c19.749,-13.708 40.287,-23.05 61.6,-28.038c21.312,-4.975 42.062,-5.787 62.25,-2.429c20.183,3.359 39.104,10.579 56.762,21.646c17.65,11.075 32.808,25.721 45.467,43.958c12.654,18.238 21.075,37.563 25.275,57.971c4.191,20.413 4.333,40.654 0.42,60.746c-3.912,20.083 -11.929,39.242 -24.049,57.463c-12.125,18.225 -28.063,34.195 -47.817,47.904c-19.975,13.866 -40.563,23.246 -61.763,28.154c-21.204,4.904 -41.85,5.637 -61.925,2.2c-20.079,-3.433 -38.941,-10.679 -56.6,-21.758c-17.654,-11.063 -32.812,-25.721 -45.466,-43.955Z" style="fill:#fff;fill-rule:nonzero;"/><path d="M2597.12,2503.75l-215.992,-212.733l44.029,-63.05l164.917,42.167l-96.6,-139.988l44.029,-63.05l274.096,129.533l-44.258,63.375l-155.796,-77.375l100.645,156.35l-17.704,25.346l-179.404,-43.579l126.296,119.629l-44.258,63.375Z" style="fill:#fff;fill-rule:nonzero;"/><path d="M2691.18,1828.3l-28.225,87.946l47.559,15.262l26.65,-83.041l62.654,20.108l-26.646,83.038l49.062,15.75l28.226,-87.946l62.654,20.108l-51.963,161.925l-284.592,-91.333l51.967,-161.925l62.654,20.108Z" style="fill:#fff;fill-rule:nonzero;"/></g><g><g><path d="M2545.86,1523.53l-1662.34,743.817c32.937,32.263 67.991,61.917 104.77,88.933l1554.06,-695.35c4.362,-45.441 5.616,-91.337 3.516,-137.4Z" style="fill:#fff;fill-rule:nonzero;"/><path d="M2518.82,1799.85l-1411.24,631.475c49.783,26.529 101.721,48.754 155.233,66.367l1202.05,-537.863c22.538,-51.641 40.563,-105.179 53.959,-159.979Z" style="fill:#fff;fill-rule:nonzero;"/><path d="M2502.78,1278.58l-1773.19,793.413c21.842,36.479 45.767,71.108 71.613,103.787l1731.23,-774.646c-7.146,-41.041 -17.025,-81.966 -29.654,-122.554Z" style="fill:#fff;fill-rule:nonzero;"/></g><g><path d="M1967.89,2461.29c166.921,-74.675 302.58,-190.413 400.563,-329.909l-913.487,408.734c169.312,19.912 346.012,-4.13 512.924,-78.825Z" style="fill:#f172ac;fill-rule:nonzero;"/><path d="M1168.72,675.321c-493.179,220.679 -714.092,799.379 -493.413,1292.56l1785.99,-799.145c-220.688,-493.188 -799.383,-714.092 -1292.58,-493.417Z" style="fill:#f172ac;fill-rule:nonzero;"/></g></g><g><path d="M2468.4,1849.72c26.614,-23.177 -15.706,-125.34 -22.454,-138.087c-11.076,-20.923 -34.922,-34.906 -59.643,-22.51c-102.137,-92.454 -179.446,-176.004 -281.817,-263.254c-19.441,-16.567 -81.2,-60.492 -98.97,-60.092c-27.95,0.629 -109.096,20.85 -159.104,27.175c-51.642,-100.492 -68.33,-158.346 -134.042,-245.933c-17.308,-23.079 -62.258,-51.813 -88.567,-74.229c-57.558,-49.05 -158.608,-89.642 -243.254,-75.826c-85.787,14.005 -130.15,52.159 -194.7,108.413c-2.696,-2.95 -23.025,-2.738 -26.742,-5.8c-88.033,-19.496 -187.104,-130.433 -301.971,-103.125c-127.554,30.321 -162.85,153.467 -94.295,262.5c30.083,50.833 80.966,102.554 80.966,102.554c-54.537,71.779 -87.146,103.667 -63.754,257.329c23.392,153.667 138.767,304.596 260.638,381.563c44.946,28.387 109.921,54.875 152.57,49.296c61.788,-8.084 99.009,-44.267 149.071,-58.334c175.725,-49.375 330.484,65.034 444.35,157.471c60.046,48.75 103.336,69.52 154.954,40.531c108.806,-61.105 437.616,-262.011 526.764,-339.642Z" style="fill:#fff;fill-rule:nonzero;"/><path d="M1186.63,1152.63c60.909,-48.351 122.826,-100.913 204.93,-111.642c81.012,-10.591 158.6,29.25 214.774,73.555c25.68,20.241 57.521,38.937 74.58,59.612c64.729,78.413 100.446,166.4 151.904,255.917c47.892,-4.634 118.817,-32.563 145.637,-32.596c17.042,-0.017 77.184,39.854 96.142,54.812c99.933,78.8 188.3,176.75 288.096,260.142c23.504,-10.467 48.346,-1.771 54.354,18.554c0.625,2.117 30.629,97.3 17.904,106.084c-3.608,6.162 -450.037,311.712 -450.037,311.712c-93.85,74.583 -143.284,-21.342 -201.842,-65.433c-111.054,-83.584 -261.779,-187.3 -429.558,-147.092c-47.804,11.454 -82.854,42.629 -142.021,48.596c-40.838,4.112 -103.717,-20.438 -147.409,-46.296c-118.449,-70.112 -194.141,-184.392 -248.341,-363.892c-13.346,-146.229 28.429,-159.65 69.296,-236.425c0,0 -60.613,-51.483 -90.463,-96.845c-67.85,-97.363 -19.458,-189.788 74.733,-211.309c108.888,-24.879 206.655,98.109 291.538,116.938c-23.162,21.083 -80.096,71.408 -102.646,83.816c30.442,-9.566 58.504,-26.195 85.888,-45.758c12.419,-8.871 24.698,-18.35 36.99,-28.055c3.358,-2.557 5.532,-4.257 5.551,-4.395l0,0Zm1200.71,591.954c-13.167,-3.325 -385.346,261.909 -418.134,284.709c-27.12,17.241 -36.708,114.908 -2.35,99.704l439.596,-308.234c7.813,-8.858 -5.946,-72.85 -19.112,-76.179Zm-890.817,-23.662c134.817,93.591 272.792,231.683 414.8,330.15c0.913,-21.138 11.383,-31.617 17.625,-35.225c-132.175,-110.942 -264.421,-221.767 -393.408,-339.221c-15.379,11.725 -44.817,31.787 -39.017,44.296Zm-241.046,-319.942c53.43,30.475 141.675,34.875 211.125,51.579c32.696,7.867 69.405,17.863 105.575,25.788c55.163,12.1 183.871,40.062 86.517,105.833c-32.317,21.825 -68.987,54.679 -95.533,71.383c133.512,111.909 396.191,318.267 396.191,318.267l363.83,-241.367c0,0 -264.888,-258.991 -351.58,-291.225c-3.996,-1.483 -85.491,28.734 -130.387,47.125c-42.646,16.425 -77.254,4.571 -101.221,-17.137c-41.692,-95.075 -27.85,-210.438 -75.229,-287.688c-29.029,-47.354 -105.038,-85.662 -152.509,-106.458c-8.32,6.35 -24.908,-3.983 -44.041,-4.287c-16.234,8.379 -332.913,203.937 -350.209,220.445c12.171,25.138 41.905,27.025 65.18,43.488c26.054,18.412 44.687,48.508 72.291,64.254Zm-50.404,67.554c-2.979,-19.721 18.479,-27.462 19.325,-45.308c-76.35,-65.792 -161.05,-145.9 -275.304,-114.75c103.913,15.429 174.771,98.312 255.979,160.058Zm-307.225,-343.737c-40.741,-26.734 -73.95,-62.504 -99.541,3.112c36.787,64.504 104.324,96.446 136.658,150.575c28.467,-18.904 69.837,-31.487 86.896,-55.979c-22.209,-22.846 -49.017,-43.562 -72.825,-68.454c-18.417,-9.838 -36.634,-19.709 -51.188,-29.254Z" style="fill-rule:nonzero;"/></g><g><path d="M1772.94,734.104l-17.659,146.896l-18.425,153.2l80.917,-31.621l-1.554,302.488l86.008,-446.8l-113.046,44.171l-16.241,-168.334Z" style="fill-rule:nonzero;"/><path d="M2120.75,1033.53l-83.517,73.967l-87.12,77.129l61.449,22.7l-152.366,169.746l272.258,-208.796l-85.85,-31.712l75.146,-103.034Z" style="fill-rule:nonzero;"/><path d="M914.933,1534.75l126.571,-4.867l132.025,-5.079l-14.212,48.204l266.546,11.275l-379.55,34.55l19.849,-67.35l-151.229,-16.733Z" style="fill:#fff;fill-rule:nonzero;"/><path d="M1011.2,1861.9l107.042,-67.729l111.646,-70.646l11.9,48.842l236.212,-124.017l-310.962,220.354l-16.625,-68.216l-139.213,61.412Z" style="fill:#fff;fill-rule:nonzero;"/></g><g><path d="M713.588,2437.9l-143.721,-51.846c0,0 -120.229,-127.875 -218.871,-370.537c-70.788,-174.146 -86.025,-403.813 -86.025,-403.813c0,0 15.854,-9.375 16.079,-12.708c0.158,-2.45 -14.475,-11.287 -14.546,-13.662c-1.542,-52.296 -4.275,-71.33 16.521,-82.288c20.796,-10.958 92.825,-6.887 103.25,6.046c10.429,12.942 12.725,16.308 10.737,79.912c-0.075,2.363 -15.341,4.467 -15.387,11.404c-0.029,5.005 14.829,11.484 14.829,11.484c0,0 0.467,174.704 78.5,362.179c90.479,217.371 191.409,329.108 191.409,329.108l47.225,134.721Z" style="fill:#fff;fill-rule:nonzero;"/><path d="M693.763,2402.32c0,0 -7.367,-2.163 -12.363,2.567c-4.867,4.608 -3.433,11.808 -3.433,11.808l-100.992,-37.125l78.971,-67.363l37.817,90.113Z" style="fill-rule:nonzero;"/><path d="M596.85,2331.8c0,0 -101.317,-105.7 -186.554,-313.225c-101.029,-245.983 -91.529,-402.2 -91.529,-402.2l51.066,0c0,0 -0.691,183.333 87.796,388.475c84.509,195.913 174.567,299.025 174.567,299.025" style="fill-rule:nonzero;"/><path d="M382.333,1581.58l-101.412,-1.158l-0.713,-54.725c0,0 10.213,-15.388 49.375,-15.388c46.946,0 52.75,17.763 52.75,17.763l0,53.508Z" style="fill-rule:nonzero;"/></g><g><path d="M2527.95,765.371l136.125,69.379c0,0 103.321,141.892 170.883,394.971c48.492,181.621 34.93,411.396 34.93,411.396c0,0 -16.901,7.321 -17.542,10.604c-0.458,2.408 12.954,13 12.729,15.367c-5,52.083 -4.662,71.308 -26.671,79.583c-21.996,8.275 -92.95,-4.758 -101.683,-18.892c-8.729,-14.141 -10.592,-17.766 -0.679,-80.629c0.371,-2.337 15.783,-2.517 16.691,-9.392c0.659,-4.958 -13.275,-13.25 -13.275,-13.25c0,0 21.354,-173.387 -32.662,-369.137c-62.625,-226.971 -148.809,-350.434 -148.809,-350.434l-30.037,-139.566Z" style="fill:#fff;fill-rule:nonzero;"/><path d="M2543.18,803.15c0,0 7.042,3.067 12.583,-1.004c5.409,-3.963 4.888,-11.288 4.888,-11.288l95.562,49.446l-86.754,56.975l-26.279,-94.129Z" style="fill-rule:nonzero;"/><path d="M2630.52,885.217c0,0 87.329,117.529 145.979,334.07c69.529,256.676 40.596,410.484 40.596,410.484l-50.667,-6.379c0,0 23.579,-181.813 -38.596,-396.392c-59.387,-204.937 -135.862,-318.487 -135.862,-318.487" style="fill-rule:nonzero;"/><path d="M2749.68,1656.36l100.471,13.813l-6.121,54.392c0,0 -12.05,13.983 -50.908,9.095c-46.575,-5.862 -50.121,-24.208 -50.121,-24.208l6.679,-53.092Z" style="fill-rule:nonzero;"/></g></g></svg>