<?xml version="1.0" standalone="no"?>
<!DOCTYPE svg PUBLIC "-//W3C//DTD SVG 20010904//EN"
 "http://www.w3.org/TR/2001/REC-SVG-20010904/DTD/svg10.dtd">
<svg version="1.0" xmlns="http://www.w3.org/2000/svg"
 width="296.000000pt" height="296.000000pt" viewBox="0 0 296.000000 296.000000"
 preserveAspectRatio="xMidYMid meet">
<metadata>
Created by potrace 1.11, written by Peter Selinger 2001-2013
</metadata>
<g transform="translate(0.000000,296.000000) scale(0.100000,-0.100000)"
fill="#000000" stroke="none">
<path d="M1380 2952 l-25 -3 1 -350 1 -350 -26 25 -26 26 -2 303 c-1 166 -2
310 -2 320 -1 14 -8 18 -28 15 l-28 -3 -2 -265 c-1 -146 -2 -274 -2 -285 -1
-18 -3 -18 -26 6 l-25 25 0 252 -1 252 -24 0 c-13 0 -27 -4 -30 -10 -3 -5 -6
-104 -7 -220 l-1 -210 -28 26 -28 27 1 173 c1 96 -1 176 -4 179 -3 3 -17 1
-32 -4 l-26 -11 0 -137 0 -138 -98 98 -98 98 -87 -55 c-352 -221 -597 -573
-672 -968 l-13 -70 91 7 c51 3 112 9 137 11 62 6 121 12 215 19 44 3 96 8 115
10 19 2 69 7 110 10 41 3 95 8 120 10 43 4 94 9 233 20 107 9 181 16 217 20
19 2 82 7 140 11 58 3 112 7 120 9 15 3 174 17 198 18 18 0 15 8 -13 37 l-26
27 362 361 c300 301 360 364 350 376 -7 8 -35 29 -62 47 l-49 31 -351 -351
c-193 -193 -354 -351 -358 -351 -4 0 -22 15 -39 33 -27 28 -31 38 -24 58 4 13
8 208 8 433 l-1 410 -32 3 -32 4 0 -383 c0 -211 0 -396 -1 -412 l0 -29 -25 23
-25 23 0 383 c0 211 -3 384 -7 386 -5 2 -19 2 -33 0z"/>
<path d="M1601 2951 c-8 -5 -11 -115 -9 -389 l3 -382 28 25 27 26 0 358 c0
343 -1 359 -19 364 -10 2 -24 1 -30 -2z"/>
<path d="M1705 2616 l0 -325 25 22 c14 12 28 26 32 32 4 5 6 140 5 300 l-2
290 -30 3 -30 3 0 -325z"/>
<path d="M1820 2661 l0 -259 31 31 32 32 0 218 c0 230 -1 236 -45 237 -17 0
-18 -19 -18 -259z"/>
<path d="M1939 2883 c-3 -15 -4 -363 -2 -363 2 0 16 14 32 30 l29 30 0 146 c0
145 -1 145 -25 155 -29 11 -33 11 -34 2z"/>
<path d="M2175 2200 c-289 -290 -345 -350 -320 -346 17 3 68 8 115 11 l85 6
283 282 c155 155 282 286 282 290 0 5 -21 31 -47 58 l-48 50 -350 -351z"/>
<path d="M2483 2116 c-117 -118 -213 -217 -213 -221 0 -3 21 -4 48 -1 26 3 76
8 112 12 l65 6 148 150 149 149 -18 27 c-10 15 -27 42 -38 59 -12 18 -25 33
-31 33 -5 -1 -106 -97 -222 -214z"/>
<path d="M2770 2005 l-75 -76 85 7 c47 4 93 8 103 8 9 0 17 6 17 12 0 18 -42
124 -49 124 -4 0 -40 -34 -81 -75z"/>
<path d="M2795 1818 c-12 -7 -14 -33 -13 -139 0 -71 -1 -131 -3 -133 -2 -2
-40 43 -84 101 -44 58 -89 117 -101 131 l-20 25 -46 -44 -46 -44 0 -182 0
-183 43 0 c25 0 45 5 47 13 2 6 4 72 4 144 -1 73 0 133 0 133 1 0 47 -60 103
-134 l102 -133 41 3 c23 2 44 6 47 10 3 3 6 104 6 225 l0 219 -32 -2 c-18 -1
-39 -6 -48 -10z"/>
<path d="M2130 1770 c-113 -32 -182 -125 -182 -244 0 -140 78 -218 212 -212
112 6 191 63 225 165 34 104 -7 232 -89 274 -40 21 -123 30 -166 17z m124 -95
c52 -48 63 -134 27 -209 -33 -68 -108 -95 -177 -64 -58 27 -79 157 -37 230 38
66 137 89 187 43z"/>
<path d="M1528 1713 c-46 -4 -48 -5 -49 -36 -1 -42 -1 -365 0 -395 1 -23 3
-23 79 -17 42 3 100 13 129 21 213 59 255 338 63 416 -34 14 -129 19 -222 11z
m208 -104 c45 -43 52 -120 16 -184 -20 -34 -90 -72 -142 -77 l-35 -3 -1 147
c-1 167 -6 159 85 147 34 -5 62 -16 77 -30z"/>
<path d="M1295 1691 l-30 -6 0 -138 c0 -75 -2 -137 -5 -136 -3 0 -49 59 -104
130 l-98 131 -47 -5 c-25 -3 -46 -6 -46 -6 0 -1 0 -101 0 -223 0 -206 2 -223
18 -222 9 1 30 2 46 3 l29 1 0 136 c0 74 2 137 4 140 3 2 49 -54 104 -126 l98
-130 47 46 47 46 -2 181 c-1 197 1 190 -61 178z"/>
<path d="M645 1643 c-77 -10 -142 -52 -182 -121 -36 -61 -43 -175 -13 -231 45
-86 101 -116 205 -109 82 5 147 44 190 112 27 45 30 58 30 131 0 81 -10 115
-45 158 -34 42 -116 68 -185 60z m75 -88 c43 -22 64 -69 63 -138 -2 -91 -49
-152 -125 -160 -80 -9 -131 50 -130 149 1 95 52 155 138 162 14 1 38 -5 54
-13z"/>
<path d="M150 1547 l-45 -48 -1 -180 -2 -181 77 7 c121 9 186 17 191 22 3 3 5
20 5 39 l1 34 -76 -6 c-41 -3 -81 -7 -87 -9 -10 -3 -13 40 -15 183 l-3 187
-45 -48z"/>
<path d="M2705 1225 c-5 -2 -30 -5 -55 -7 l-45 -4 -3 -128 -3 -127 23 3 c19 2
24 10 26 44 3 36 7 43 28 47 20 3 30 -4 56 -39 32 -44 39 -48 70 -36 14 6 12
12 -16 45 l-33 39 29 28 c19 19 28 39 28 59 0 32 -30 71 -54 71 -8 0 -20 2
-28 4 -7 3 -17 3 -23 1z m38 -51 c20 -6 23 -47 5 -62 -7 -5 -32 -12 -55 -16
-45 -6 -52 3 -45 55 3 22 9 26 40 27 21 1 45 -1 55 -4z"/>
<path d="M2460 1202 c-14 -1 -44 -5 -67 -8 l-42 -5 0 -126 1 -126 91 7 c50 4
95 12 98 18 11 17 0 36 -19 33 -9 -2 -41 -6 -69 -9 l-53 -5 0 34 c0 33 2 35
33 36 66 1 97 12 97 35 0 14 -9 16 -65 11 l-65 -6 0 32 c0 31 2 32 43 35 92 5
97 7 97 36 0 13 -17 15 -80 8z"/>
<path d="M2139 1173 c-14 -3 -16 -22 -16 -130 l0 -125 71 6 c39 3 79 6 89 6
11 0 17 8 17 24 0 18 -5 23 -17 20 -10 -2 -39 -5 -65 -7 l-48 -4 0 103 c0 57
-3 105 -7 107 -5 2 -15 2 -24 0z"/>
<path d="M1913 1152 c-22 -3 -23 -6 -23 -129 l0 -125 78 5 c42 4 83 6 90 7 6
0 12 11 12 24 0 18 -5 23 -17 20 -10 -2 -39 -5 -65 -7 l-47 -4 -3 106 c-3 104
-4 106 -25 103z"/>
<path d="M1651 1123 c-62 -31 -94 -113 -68 -176 54 -128 257 -71 257 73 0 95
-97 148 -189 103z m121 -55 c43 -56 -2 -148 -72 -148 -44 0 -79 40 -75 86 7
80 102 120 147 62z"/>
<path d="M1330 1100 c-8 -5 -12 -39 -12 -101 0 -163 -1 -157 25 -152 20 4 23
10 23 46 -1 40 1 42 29 44 25 2 35 -4 57 -37 25 -36 54 -50 71 -34 3 4 -7 25
-23 48 -28 41 -28 43 -9 54 25 16 42 59 35 88 -12 45 -33 55 -111 53 -41 -1
-79 -5 -85 -9z m136 -41 c18 -15 18 -43 0 -58 -8 -7 -34 -14 -58 -16 l-43 -4
-1 37 c-1 20 2 39 7 42 16 10 82 10 95 -1z"/>
<path d="M1028 1095 c-1 -1 -41 -6 -88 -9 l-85 -7 -257 -257 -257 -257 48 -54
47 -54 317 318 c174 174 317 318 317 319 0 3 -38 5 -42 1z"/>
<path d="M1178 1055 l-28 -26 0 -493 0 -494 28 -5 c15 -3 28 -4 30 -3 1 2 1
238 0 525 l-3 521 -27 -25z"/>
<path d="M689 1066 c-5 -4 -130 -16 -175 -16 -27 0 -51 -20 -168 -136 -75 -75
-136 -138 -136 -141 0 -9 61 -112 69 -117 4 -3 101 89 217 205 115 115 206
209 203 209 -3 0 -8 -2 -10 -4z"/>
<path d="M227 1024 c-1 -1 -24 -3 -52 -5 -77 -4 -77 -4 -54 -62 11 -28 23 -57
27 -63 5 -8 33 14 81 62 l74 75 -37 -3 c-20 -1 -38 -3 -39 -4z"/>
<path d="M1061 938 l-30 -32 0 -413 c0 -312 3 -415 12 -418 7 -2 21 -5 32 -7
19 -3 19 5 20 450 0 248 -1 452 -2 452 -1 0 -15 -14 -32 -32z"/>
<path d="M2554 860 c-12 -5 -34 -31 -50 -59 -15 -28 -30 -51 -33 -50 -3 0 -20
21 -37 47 -23 36 -37 47 -57 48 -15 1 -27 -1 -27 -3 0 -2 23 -37 50 -78 43
-64 50 -80 48 -117 -3 -40 -1 -43 22 -43 22 0 24 4 26 52 1 41 9 64 41 115 55
88 54 86 46 91 -5 3 -18 1 -29 -3z"/>
<path d="M947 825 c-15 -14 -27 -36 -28 -48 -5 -142 0 -650 7 -656 5 -5 19
-12 32 -16 l22 -6 0 375 c0 207 -1 376 -3 376 -1 0 -15 -11 -30 -25z"/>
<path d="M2190 832 c-80 -6 -75 3 -75 -138 l-1 -126 75 6 c87 8 128 27 137 62
7 28 -9 74 -26 74 -6 0 -5 11 3 28 35 68 -6 103 -113 94z m76 -64 c3 -24 -17
-37 -62 -40 -35 -3 -39 -1 -40 22 -2 37 3 41 54 38 34 -2 46 -7 48 -20z m-8
-84 c27 -5 30 -39 5 -53 -10 -5 -36 -11 -58 -12 -38 -4 -40 -3 -43 28 -3 26 1
32 20 35 42 6 53 7 76 2z"/>
<path d="M1868 802 c-10 -2 -18 -8 -18 -13 -1 -5 -1 -52 -1 -104 0 -158 -2
-145 23 -136 18 6 22 16 23 47 0 35 3 39 26 42 21 2 33 -6 59 -37 21 -28 40
-41 56 -41 30 0 30 11 -1 48 -31 37 -31 37 0 74 28 34 28 77 -1 109 -15 17
-29 20 -83 18 -37 -2 -74 -5 -83 -7z m130 -45 c17 -11 15 -42 -3 -57 -9 -7
-35 -14 -58 -14 -42 -1 -42 -1 -42 34 0 26 5 36 20 41 27 7 67 5 83 -4z"/>
<path d="M1769 796 c-3 -3 -120 -15 -156 -16 -10 0 -13 -33 -13 -129 l0 -129
33 4 c34 4 124 12 145 13 6 1 12 13 12 27 0 14 -3 23 -7 21 -5 -3 -36 -8 -70
-11 l-63 -6 0 35 0 35 48 1 c56 1 78 9 77 29 0 12 -13 14 -66 12 l-66 -2 5 30
c3 21 10 30 23 31 11 1 24 3 29 4 6 1 28 3 50 4 32 1 40 5 40 20 0 19 -13 35
-21 27z"/>
<path d="M1397 764 c-1 -2 -19 -4 -40 -6 -25 -1 -37 -7 -38 -18 -1 -18 -1
-196 0 -224 1 -17 7 -18 64 -12 79 9 125 33 149 76 44 83 5 166 -85 180 -26 4
-48 5 -50 4z m77 -65 c60 -47 11 -149 -71 -149 l-39 0 0 78 c0 42 5 80 11 84
20 15 73 8 99 -13z"/>
<path d="M829 707 l-27 -31 1 -248 0 -249 29 -15 c22 -11 28 -12 29 -2 3 40 1
570 -2 573 -2 2 -16 -11 -30 -28z"/>
<path d="M715 595 c-14 -14 -25 -36 -26 -48 -1 -26 -1 -253 0 -282 1 -12 14
-28 31 -38 l30 -18 0 205 c0 113 -2 206 -5 206 -2 0 -16 -11 -30 -25z"/>
<path d="M597 477 c-23 -26 -27 -41 -27 -88 0 -53 3 -60 30 -79 28 -20 30 -20
31 -3 2 32 -2 197 -4 200 -1 1 -15 -12 -30 -30z"/>
<path d="M2510 500 c-41 -4 -109 -11 -150 -14 -98 -9 -168 -15 -235 -21 -111
-10 -162 -15 -230 -20 -38 -3 -86 -8 -105 -10 -19 -2 -75 -7 -124 -10 -50 -4
-97 -8 -107 -10 -9 -2 -58 -6 -110 -10 -52 -3 -103 -7 -114 -10 -11 -2 -22 -4
-25 -4 -3 -1 -5 -85 -5 -188 l0 -188 50 -6 c62 -8 282 -4 350 6 304 43 589
181 818 395 84 79 101 102 75 99 -7 -1 -47 -5 -88 -9z"/>
</g>
</svg>
