<?xml version="1.0" standalone="no"?>
<!DOCTYPE svg PUBLIC "-//W3C//DTD SVG 20010904//EN"
 "http://www.w3.org/TR/2001/REC-SVG-20010904/DTD/svg10.dtd">
<svg version="1.0" xmlns="http://www.w3.org/2000/svg"
 width="700.000000pt" height="700.000000pt" viewBox="0 0 700.000000 700.000000"
 preserveAspectRatio="xMidYMid meet">
<metadata>
Created by potrace 1.11, written by Peter Selinger 2001-2013
</metadata>
<g transform="translate(0.000000,700.000000) scale(0.100000,-0.100000)"
fill="#000000" stroke="none">
<path d="M3278 6995 c-1 -1 -41 -5 -88 -9 -87 -7 -105 -9 -225 -27 -116 -18
-123 -19 -192 -35 -154 -34 -203 -47 -313 -81 -990 -302 -1822 -1071 -2210
-2043 -64 -161 -142 -412 -165 -531 -3 -13 -11 -58 -20 -99 -29 -147 -35 -192
-52 -370 -15 -162 -8 -591 12 -711 2 -13 6 -46 9 -74 46 -402 225 -916 450
-1289 36 -60 66 -111 66 -113 0 -2 4 -9 10 -16 5 -7 46 -64 91 -127 207 -293
493 -585 769 -785 30 -22 57 -43 58 -47 2 -5 8 -8 13 -8 6 0 38 -19 72 -43
225 -157 569 -323 857 -416 105 -33 305 -87 360 -96 19 -3 53 -10 75 -15 44
-9 95 -18 158 -25 23 -3 53 -7 65 -10 134 -26 702 -26 840 0 16 3 104 15 147
20 183 24 545 127 775 222 117 48 312 144 392 192 37 23 70 41 73 41 3 0 11 5
18 10 7 6 64 45 129 88 184 122 316 230 488 397 182 177 302 318 442 520 173
249 331 564 430 855 35 103 92 303 104 363 21 109 44 241 49 282 4 28 8 61 11
75 26 150 25 646 -1 830 -4 26 -10 73 -20 144 -16 116 -78 371 -124 513 -261
799 -800 1480 -1518 1917 -112 68 -316 175 -404 211 -35 14 -82 34 -104 44
-158 71 -558 182 -745 206 -19 3 -46 7 -60 10 -13 2 -54 7 -90 11 -36 3 -78 8
-95 11 -33 5 -531 13 -537 8z m459 -264 l42 -1 86 -267 c48 -148 100 -308 116
-358 16 -49 29 -93 29 -97 0 -9 -183 1 -191 10 -4 4 -14 33 -23 65 l-17 57
-52 1 c-29 0 -88 3 -132 5 l-80 5 -24 -61 -23 -62 -95 5 c-52 3 -96 7 -98 9
-4 3 282 659 298 685 5 8 29 11 65 8 31 -1 76 -3 99 -4z m-706 -43 c0 -7 2
-20 4 -28 2 -8 13 -69 24 -135 18 -103 43 -240 57 -310 19 -98 35 -208 30
-212 -5 -5 -141 -33 -162 -33 -7 0 -15 15 -18 33 -3 17 -8 43 -11 57 -3 14
-12 63 -20 110 -8 47 -17 96 -20 110 -6 30 -30 161 -51 280 -8 47 -16 90 -19
97 -2 7 9 15 28 18 18 3 52 10 77 14 66 13 80 12 81 -1z m1410 -84 c43 -14 77
-29 75 -32 -17 -31 -166 -516 -159 -523 4 -4 52 -22 105 -39 l96 -30 -25 -76
c-15 -44 -30 -74 -37 -71 -6 2 -92 31 -191 62 -99 32 -181 59 -182 60 -1 0 20
71 48 155 27 85 75 232 105 325 30 94 57 176 59 183 6 17 15 16 106 -14z
m-1845 -121 l42 -101 -33 14 c-90 37 -199 -6 -245 -97 -50 -97 3 -229 110
-272 77 -32 184 6 230 82 14 22 27 40 30 41 3 0 22 -44 42 -98 l38 -97 -33
-28 c-17 -16 -60 -42 -95 -59 -275 -133 -583 111 -527 417 18 97 116 223 204
262 42 19 136 40 170 39 21 -1 30 -14 67 -103z m2468 -140 c33 -20 66 -40 72
-45 8 -6 -30 -80 -127 -244 -76 -130 -139 -238 -139 -240 0 -2 43 -29 95 -59
l95 -56 -25 -42 c-15 -23 -31 -52 -37 -64 -6 -13 -15 -23 -20 -23 -7 0 -327
181 -347 196 -7 6 352 614 362 614 5 0 37 -16 71 -37z m-3219 -200 c33 -49
121 -179 197 -290 76 -112 138 -205 138 -207 0 -2 -33 -27 -74 -55 l-74 -51
-34 47 c-19 27 -63 91 -98 143 -35 52 -110 164 -168 248 -57 84 -102 155 -100
156 16 13 144 96 149 96 3 0 32 -39 64 -87z m3705 -120 l66 -62 -17 -103 c-10
-57 -18 -108 -18 -115 -1 -14 18 -11 137 18 45 11 89 16 96 12 7 -5 46 -38 85
-75 l72 -67 -38 -10 c-21 -5 -74 -17 -118 -25 -262 -50 -296 -61 -325 -97 -32
-41 -195 -209 -201 -207 -4 2 -35 29 -69 61 -68 64 -67 53 -15 113 6 6 39 43
75 80 123 130 112 111 125 219 4 32 9 68 11 80 2 11 9 58 15 105 6 47 13 92
14 100 2 8 4 26 4 39 1 28 2 27 101 -66z m-4117 -255 l-78 -78 42 -42 41 -41
73 71 72 71 55 -55 54 -56 -71 -72 -72 -72 96 -96 c52 -53 95 -99 95 -103 0
-9 -116 -125 -125 -125 -4 0 -120 113 -257 251 l-249 252 147 144 146 144 55
-57 54 -58 -78 -78z m2367 -13 c86 -12 276 -55 375 -86 587 -183 1072 -594
1350 -1143 28 -54 46 -101 40 -103 -5 -2 -136 -60 -290 -129 -154 -68 -382
-170 -506 -226 l-227 -101 67 -40 c36 -22 91 -60 121 -85 30 -24 60 -47 67
-49 11 -4 172 65 494 210 30 14 75 34 102 46 97 43 134 60 201 90 38 17 70 31
72 31 7 0 45 -140 70 -258 4 -20 -4 -27 -63 -54 -216 -97 -618 -275 -631 -279
-12 -4 174 -199 196 -207 5 -1 124 50 266 113 143 64 261 114 263 111 7 -7 3
-252 -6 -307 -1 -4 -18 -14 -38 -22 -21 -8 -72 -31 -115 -51 l-76 -35 26 -63
c14 -35 33 -93 41 -130 l17 -67 43 20 43 19 -7 -37 c-9 -52 -72 -238 -98 -292
-21 -43 -27 -46 -162 -106 -77 -34 -293 -131 -480 -215 -187 -83 -441 -197
-565 -252 -124 -55 -250 -111 -280 -125 -106 -49 -456 -205 -575 -258 -66 -29
-145 -64 -175 -78 -141 -64 -181 -82 -260 -117 -47 -21 -105 -47 -130 -58 -25
-11 -76 -34 -114 -50 l-69 -30 -61 23 c-156 59 -286 118 -286 131 0 3 26 17
58 30 31 14 75 34 97 44 61 27 113 50 325 145 107 48 254 114 325 146 72 32
261 116 420 187 160 71 290 133 289 138 0 10 -64 60 -170 134 l-70 49 -145
-65 c-79 -36 -157 -71 -174 -78 -16 -8 -113 -51 -215 -96 -102 -45 -218 -98
-258 -116 -40 -19 -74 -34 -76 -34 -2 0 -43 -18 -90 -40 -47 -22 -88 -40 -90
-40 -3 0 -40 -16 -83 -36 -43 -20 -139 -63 -213 -96 -136 -60 -199 -89 -212
-95 -7 -4 -124 89 -201 159 l-48 44 58 26 c32 15 83 38 113 51 133 59 630 281
680 304 30 14 161 72 290 130 129 58 251 113 270 121 l35 16 -70 11 c-158 25
-277 4 -456 -81 -63 -30 -126 -57 -140 -60 -52 -13 -132 -12 -190 3 l-60 15
-307 -138 c-169 -75 -331 -148 -360 -161 l-53 -24 -22 27 c-38 47 -137 198
-137 209 0 5 130 68 289 139 l288 128 -101 104 -102 104 -174 -79 c-96 -43
-197 -88 -225 -101 -27 -12 -63 -28 -78 -36 -28 -13 -28 -13 -52 41 -69 154
-140 420 -162 605 -10 83 -10 443 0 535 6 56 47 274 61 320 66 228 155 435
259 604 121 196 332 437 508 578 329 265 782 454 1173 490 34 3 63 7 66 9 6 6
435 -4 490 -11z m-2812 -362 c66 -41 66 -36 1 -134 -32 -49 -59 -90 -59 -93 0
-7 80 -56 92 -56 7 0 35 34 62 75 27 42 52 77 56 80 9 6 125 -74 123 -85 -2
-5 -25 -44 -52 -87 -28 -43 -49 -78 -48 -79 1 -1 55 -35 119 -76 l117 -75 -45
-69 c-25 -38 -49 -73 -53 -77 -7 -7 -555 335 -589 368 -11 10 6 43 95 183 105
166 109 170 131 156 12 -8 34 -22 50 -31z m4904 -110 c162 -84 166 -88 238
-218 136 -245 253 -543 318 -810 18 -71 24 -99 37 -180 24 -137 37 -315 40
-529 2 -208 0 -222 -28 -230 -20 -5 -20 -6 -3 -25 15 -16 17 -30 12 -81 -12
-115 -38 -138 -142 -126 -118 13 -166 42 -166 100 0 64 14 136 27 136 21 0 30
22 14 34 -11 9 -14 51 -14 206 0 238 -7 317 -45 510 -24 119 -42 187 -82 308
-18 54 -33 99 -33 102 -1 3 -5 14 -10 25 -4 11 -23 61 -42 110 -38 98 -130
287 -183 375 -18 30 -33 60 -34 65 -16 79 -31 145 -47 212 -21 90 -21 93 -13
93 3 0 73 -35 156 -77z m-5005 -604 c144 -49 239 -176 248 -329 9 -174 -79
-333 -223 -402 -185 -88 -415 -5 -499 179 -73 158 -19 385 116 492 98 78 239
101 358 60z m-156 -1030 c36 -14 49 -48 49 -130 0 -53 -4 -71 -15 -75 -19 -8
-19 -23 -1 -38 9 -7 16 -42 20 -101 3 -49 8 -99 10 -110 2 -11 7 -40 10 -65
43 -311 171 -660 363 -990 62 -105 171 -268 212 -316 24 -27 140 -329 130
-338 -2 -2 -76 23 -164 55 -178 65 -178 65 -289 219 -229 317 -403 691 -491
1050 -26 107 -69 357 -80 465 -3 33 -8 72 -11 87 -4 19 0 32 15 45 19 16 20
18 3 36 -12 13 -17 38 -18 85 -1 80 15 119 54 128 15 3 32 7 37 8 22 6 142 -5
166 -15z m5309 -731 l67 -21 -32 -103 -32 -102 54 -17 c30 -10 55 -16 57 -14
1 2 15 45 30 94 16 50 29 91 30 92 2 3 125 -35 136 -42 4 -3 -5 -47 -21 -97
-16 -51 -29 -94 -29 -94 0 -1 18 -9 40 -18 71 -28 74 -26 105 79 21 71 32 95
45 95 20 0 112 -30 123 -40 4 -4 -10 -60 -31 -126 -21 -65 -47 -147 -57 -182
-18 -59 -21 -63 -45 -57 -14 3 -158 49 -321 101 -162 51 -301 94 -307 94 -6 0
-10 6 -7 13 2 6 29 92 60 190 31 97 59 177 62 177 4 0 37 -10 73 -22z m-110
-660 c135 -65 371 -176 422 -200 16 -7 28 -17 28 -21 0 -14 -91 -137 -102
-137 -6 0 -27 9 -47 20 -20 10 -96 49 -169 85 -99 49 -130 61 -123 46 6 -11
56 -89 111 -174 55 -86 100 -161 100 -169 -1 -7 -9 -23 -19 -35 l-18 -22 -94
24 c-52 13 -105 26 -119 28 -14 3 -54 12 -90 22 -36 9 -74 18 -85 21 -11 3 44
-57 123 -133 l143 -138 -48 -69 c-26 -39 -52 -69 -58 -67 -5 2 -119 110 -253
242 l-242 239 17 28 c10 15 32 48 50 73 l33 46 77 -18 c43 -11 127 -32 188
-48 60 -16 111 -29 112 -27 1 1 -47 73 -107 161 -60 87 -107 163 -103 169 3 6
26 39 50 73 51 72 26 74 223 -19z m-611 -120 c-173 -223 -363 -400 -582 -543
-191 -124 -518 -268 -681 -299 -11 -2 -41 -9 -66 -15 -46 -10 -75 -16 -145
-27 -22 -3 -51 -8 -65 -11 -43 -8 -474 -11 -505 -4 l-30 7 35 16 c19 9 100 45
180 81 167 74 716 320 775 347 22 10 83 37 135 60 52 23 120 53 150 67 30 14
141 63 245 110 105 46 208 93 230 103 38 18 73 33 215 96 36 16 81 36 100 45
19 10 37 16 39 14 2 -2 -12 -23 -30 -47z m7 -599 c122 -46 222 -183 229 -314
7 -116 -34 -214 -123 -297 -124 -116 -286 -147 -424 -80 -73 36 -92 51 -140
114 -108 142 -93 340 36 471 117 119 279 159 422 106z m-3273 -127 c30 -21 37
-32 34 -52 -5 -29 -187 -683 -192 -688 -2 -2 -38 22 -80 53 -58 43 -75 61 -70
73 4 10 13 36 20 60 l13 43 -85 62 c-47 34 -92 68 -99 75 -18 17 -24 16 -78
-23 l-49 -35 -36 27 c-20 15 -55 41 -77 58 l-42 31 209 135 c115 73 255 164
312 200 l102 66 40 -29 c22 -16 57 -42 78 -56z m483 -466 c-6 -221 -5 -230 12
-206 9 13 66 94 125 180 60 85 114 160 120 166 9 8 29 6 77 -10 l64 -21 3 -65
c1 -36 4 -138 6 -228 3 -89 7 -166 11 -169 3 -3 6 -2 6 3 0 8 114 198 170 284
5 8 19 32 30 52 11 20 23 39 28 42 5 3 47 -7 95 -22 l87 -27 -78 -120 c-70
-107 -312 -476 -317 -483 -2 -3 -168 48 -174 54 -2 2 -6 54 -8 116 -4 119 -10
277 -12 292 -1 5 -55 -67 -122 -160 -85 -119 -125 -168 -137 -166 -9 2 -50 13
-89 24 l-73 22 0 362 0 361 90 -25 91 -26 -5 -230z m2008 149 c-3 -110 2 -101
-57 -102 -61 -1 -90 -13 -113 -48 -15 -23 -15 -27 0 -50 15 -23 36 -30 76 -27
171 15 214 7 265 -49 114 -126 77 -296 -81 -377 -77 -39 -182 -56 -267 -43 -5
0 -6 29 -3 64 2 34 5 70 5 80 1 15 7 17 51 11 123 -16 223 63 159 127 -19 19
-28 20 -129 14 -123 -8 -162 0 -204 44 -53 56 -76 171 -48 242 36 89 177 166
304 164 l43 0 -1 -50z m-583 -147 c0 -18 2 -52 5 -75 6 -42 5 -43 -23 -44
-133 -3 -201 -17 -188 -38 2 -4 5 -26 6 -49 l3 -42 103 6 103 7 1 -49 c0 -27
2 -59 5 -72 2 -12 -2 -25 -9 -27 -15 -6 -97 -13 -155 -14 -24 -1 -41 -5 -38
-9 3 -5 6 -32 7 -61 l3 -53 90 7 c49 3 93 8 96 10 18 11 31 -19 36 -83 l5 -72
-38 -1 c-21 -1 -49 -2 -63 -4 -14 -1 -63 -6 -110 -9 -47 -4 -106 -9 -132 -12
-34 -3 -48 0 -49 8 -1 7 -3 22 -4 33 -4 35 -16 185 -21 259 -2 39 -6 89 -8
111 -3 22 -7 83 -11 135 -3 52 -8 105 -11 118 -2 12 -1 22 3 23 5 0 19 2 33 4
14 2 70 6 125 10 55 4 101 8 103 10 1 1 32 3 67 4 l65 2 1 -33z"/>
<path d="M3651 6483 c-8 -21 -22 -56 -32 -78 -10 -22 -25 -57 -33 -77 l-15
-38 27 -1 c15 0 53 -3 84 -5 l56 -3 -18 62 c-39 135 -52 177 -54 177 -1 0 -8
-17 -15 -37z"/>
<path d="M3970 5400 c-1 -14 -3 -38 -5 -55 -1 -16 -5 -50 -9 -75 -9 -64 -15
-107 -22 -170 -8 -78 -15 -129 -30 -250 -8 -66 -12 -110 -10 -110 1 0 40 16
86 35 46 19 88 35 92 35 4 0 7 -144 5 -320 -1 -176 1 -320 6 -320 4 0 7 6 8
13 0 6 2 19 4 27 1 8 15 78 29 155 15 77 34 172 41 210 27 128 97 499 102 537
l5 36 -127 -50 c-70 -27 -128 -48 -130 -46 -2 3 -9 61 -21 203 -9 97 -21 172
-24 145z"/>
<path d="M1847 4741 c-94 -31 -149 -76 -191 -159 -21 -42 -25 -60 -22 -123 6
-118 53 -202 198 -346 l81 -82 -55 -88 c-98 -158 -110 -194 -109 -355 0 -76 5
-113 25 -170 63 -188 121 -312 202 -433 79 -118 101 -144 179 -213 132 -119
282 -200 423 -230 73 -15 83 -15 146 1 37 9 106 34 154 56 284 127 577 74 947
-172 121 -81 207 -148 285 -224 110 -107 196 -135 285 -94 22 10 104 63 182
117 79 55 195 135 260 179 140 96 450 311 586 407 113 80 110 72 72 223 -30
120 -50 144 -115 138 -36 -4 -46 0 -83 33 -42 37 -258 237 -307 284 -251 241
-456 396 -534 404 -14 1 -68 -8 -119 -21 -150 -40 -201 -52 -212 -53 -11 0
-18 11 -105 175 -119 226 -192 344 -258 417 -57 63 -243 198 -342 248 -74 37
-195 70 -259 70 -130 -1 -285 -63 -426 -171 -213 -163 -283 -213 -336 -240
-32 -16 -61 -29 -64 -29 -3 0 29 28 72 63 43 34 92 76 109 92 l31 28 -81 41
c-45 23 -121 67 -169 99 -207 135 -324 168 -450 128z m1570 -121 c52 -23 169
-91 207 -122 120 -96 162 -196 202 -483 2 -16 6 -39 8 -50 2 -11 10 -49 17
-85 6 -36 22 -89 35 -118 20 -45 30 -55 71 -73 36 -15 62 -19 103 -16 49 4
135 33 342 115 35 14 92 -14 216 -107 166 -125 644 -553 631 -565 -2 -2 -192
-128 -422 -280 l-419 -277 -36 28 c-40 30 -818 654 -859 689 l-24 21 136 103
c75 56 142 112 150 124 32 44 9 88 -64 125 -51 26 -488 133 -633 155 -88 13
-221 48 -270 70 -32 14 -83 52 -127 95 -41 39 -95 81 -120 93 -62 29 -101 57
-101 71 0 14 72 62 395 264 433 271 402 254 465 247 30 -3 74 -14 97 -24z
m-1574 -26 c18 -9 57 -34 87 -54 30 -20 73 -47 95 -58 22 -12 78 -57 124 -101
l85 -79 -29 -25 c-16 -13 -62 -42 -103 -63 l-74 -38 -26 35 c-15 18 -56 61
-91 94 -102 94 -141 135 -172 177 -27 38 -28 42 -14 68 16 31 51 60 73 60 7 0
27 -7 45 -16z m477 -499 c101 -36 215 -111 335 -219 44 -40 48 -47 37 -63 -7
-10 -18 -30 -25 -45 -6 -16 -14 -28 -17 -28 -3 0 -21 13 -40 29 -298 248 -334
272 -475 317 -55 17 -64 23 -45 27 49 9 186 -2 230 -18z m260 -502 c0 -5 -7
-29 -15 -55 -10 -36 -11 -48 -2 -49 7 0 53 -2 102 -4 50 -2 133 -6 185 -9 52
-3 135 -6 183 -7 125 -2 112 -8 -53 -23 -36 -4 -92 -9 -125 -11 -33 -3 -78 -7
-100 -10 -22 -2 -76 -7 -120 -10 -44 -4 -91 -8 -105 -10 -14 -2 -65 -7 -115
-10 -49 -3 -98 -8 -107 -11 -22 -7 -22 -6 3 78 11 39 19 72 17 74 -4 4 -54 11
-145 20 -34 3 -70 7 -80 9 -10 2 -36 4 -57 4 -22 1 -37 3 -35 6 3 2 86 7 185
11 98 3 180 7 181 8 7 5 203 4 203 -1z m644 -326 c-27 -18 -166 -116 -309
-218 -143 -101 -276 -196 -295 -209 -19 -14 -38 -29 -42 -34 -6 -9 -15 18 -38
111 -12 48 -4 48 -115 -2 -231 -103 -230 -102 20 55 99 62 200 126 225 142
l45 29 12 -51 c6 -28 14 -54 16 -57 3 -3 43 15 89 40 46 24 137 73 203 107 66
35 143 76 170 91 68 38 78 36 19 -4z m292 -102 c23 -21 153 -136 202 -177 27
-24 141 -121 253 -217 112 -95 227 -193 254 -216 117 -99 110 -91 96 -108 -7
-9 -16 -28 -19 -42 l-8 -27 -89 68 c-107 80 -211 165 -480 389 -248 207 -226
189 -318 258 -42 31 -77 61 -77 66 0 5 21 28 46 50 l47 41 41 -37 c22 -20 46
-42 52 -48z m1916 -126 c9 -24 17 -62 17 -84 l1 -40 -280 -195 c-154 -107
-290 -203 -302 -212 -13 -9 -119 -85 -237 -167 -255 -178 -257 -178 -253 -42
2 74 33 120 120 179 42 30 174 121 292 204 413 290 596 411 615 405 6 -2 18
-24 27 -48z"/>
<path d="M4719 4687 c-56 -51 -100 -91 -204 -182 -44 -38 -91 -80 -104 -92
l-25 -22 30 -11 c16 -6 48 -18 71 -27 l43 -16 -78 -86 c-42 -47 -88 -98 -102
-112 -14 -15 -36 -39 -50 -55 -13 -16 -45 -51 -70 -78 -44 -48 -32 -50 22 -4
15 13 144 113 287 222 143 110 258 202 256 206 -2 4 -45 22 -95 39 -60 22 -88
37 -83 44 8 14 119 167 131 182 12 15 24 35 20 35 -2 0 -24 -19 -49 -43z"/>
<path d="M5800 5290 c0 -5 -7 -10 -15 -10 -19 0 -19 -1 5 -96 35 -138 25 -133
134 -61 53 34 96 64 96 67 0 6 -201 110 -212 110 -5 0 -8 -4 -8 -10z"/>
<path d="M5920 5058 c-19 -12 -37 -23 -39 -24 -2 -2 12 -29 32 -61 140 -235
306 -698 342 -958 3 -22 7 -49 10 -60 14 -69 20 -186 20 -371 l0 -212 54 -6
c30 -4 55 -5 57 -3 22 22 21 325 -1 499 -5 39 -30 191 -40 243 -34 174 -115
438 -188 605 -72 166 -183 370 -202 370 -5 0 -26 -10 -45 -22z"/>
<path d="M6243 3284 c-3 -8 -6 -40 -7 -72 -1 -56 0 -57 34 -74 45 -22 122 -30
160 -16 17 5 30 13 31 16 1 10 8 53 13 82 7 38 -3 47 -64 54 -30 3 -79 10
-108 15 -42 6 -55 5 -59 -5z"/>
<path d="M674 4485 c-186 -93 -126 -375 80 -377 229 -2 276 329 55 392 -52 15
-81 12 -135 -15z"/>
<path d="M585 3632 c-11 -2 -32 -8 -47 -14 -27 -10 -28 -13 -28 -79 l0 -69
119 0 119 0 -3 63 c-2 34 -3 65 -4 68 -3 20 -106 40 -156 31z"/>
<path d="M599 3373 c-2 -22 -2 -9 5 -118 3 -49 8 -101 10 -115 3 -14 10 -52
16 -86 22 -128 102 -408 145 -509 7 -16 25 -61 40 -100 42 -104 145 -307 210
-415 84 -138 207 -301 224 -295 43 16 85 68 62 77 -13 5 -152 213 -213 318
-231 403 -358 811 -380 1223 l-2 37 -58 0 c-48 0 -58 -3 -59 -17z"/>
<path d="M1286 1693 l-88 -76 112 -42 112 -42 22 20 22 20 -38 89 c-21 48 -38
93 -38 98 0 19 -15 9 -104 -67z"/>
<path d="M5114 1370 c-17 -6 -49 -27 -71 -48 -125 -121 -42 -325 133 -325 140
0 235 152 174 279 -39 81 -144 122 -236 94z"/>
<path d="M1788 1202 l-96 -66 56 -43 c31 -23 62 -43 68 -43 9 0 78 209 71 216
-1 1 -46 -28 -99 -64z"/>
</g>
</svg>
