<?xml version="1.0" standalone="no"?>
<!DOCTYPE svg PUBLIC "-//W3C//DTD SVG 20010904//EN"
 "http://www.w3.org/TR/2001/REC-SVG-20010904/DTD/svg10.dtd">
<svg version="1.0" xmlns="http://www.w3.org/2000/svg"
 width="355.000000pt" height="355.000000pt" viewBox="0 0 355.000000 355.000000"
 preserveAspectRatio="xMidYMid meet">
<metadata>
Created by potrace 1.11, written by Peter Selinger 2001-2013
</metadata>
<g transform="translate(0.000000,355.000000) scale(0.100000,-0.100000)"
fill="#000000" stroke="none">
<path d="M1798 3518 c-20 -18 -42 -44 -49 -57 -16 -34 -18 -169 -2 -266 26
-163 32 -221 38 -360 8 -178 14 -277 20 -325 3 -25 7 -65 10 -90 12 -126 73
-286 108 -284 9 1 27 2 40 3 58 4 86 65 102 221 3 36 8 76 10 90 2 14 7 70 10
125 9 147 23 320 30 354 2 10 6 42 10 72 4 30 9 57 11 61 5 8 17 231 18 335 1
63 -2 74 -24 98 -39 41 -51 45 -177 51 l-118 5 -37 -33z"/>
<path d="M658 2995 c-77 -63 -101 -95 -117 -150 -20 -72 -16 -83 57 -153 78
-75 249 -219 377 -318 49 -38 133 -110 185 -159 52 -50 120 -110 150 -135 30
-25 57 -47 60 -51 14 -16 116 -80 137 -85 60 -15 143 24 143 67 0 55 -44 132
-122 214 -44 46 -94 103 -112 127 -18 24 -111 133 -205 243 -95 110 -203 243
-241 296 -77 108 -125 145 -197 154 -47 5 -50 3 -115 -50z"/>
<path d="M3035 3007 c-87 -91 -187 -209 -305 -357 -142 -177 -249 -305 -312
-370 -166 -175 -200 -251 -142 -320 24 -28 31 -31 67 -26 67 10 124 44 215
130 48 45 128 113 177 151 80 61 242 191 255 205 3 3 37 32 75 65 75 64 140
124 241 223 73 72 77 88 40 167 -43 94 -134 161 -229 170 -39 4 -45 1 -82 -38z"/>
<path d="M1930 1801 c-8 -5 -35 -12 -59 -16 -38 -5 -88 -25 -246 -95 -22 -10
-67 -29 -100 -43 -80 -33 -375 -167 -495 -224 -114 -55 -322 -151 -585 -273
-44 -20 -111 -50 -149 -66 -79 -33 -92 -53 -105 -160 -14 -115 13 -155 169
-259 52 -35 109 -75 125 -89 49 -43 69 -59 120 -101 26 -22 53 -45 59 -51 56
-54 254 -202 301 -226 l60 -31 65 17 c36 9 130 48 210 86 137 65 240 100 303
100 15 0 27 -4 27 -8 0 -4 30 -26 68 -47 37 -22 112 -76 167 -120 186 -148
277 -187 424 -184 82 2 116 7 216 34 88 23 291 153 398 254 122 116 200 247
250 422 21 74 24 102 22 232 l-2 148 -37 73 c-61 125 -159 203 -441 353 -82
44 -195 109 -250 145 -180 118 -226 134 -385 136 -63 1 -122 -2 -130 -7z
m-104 -219 c44 -14 67 -27 164 -92 47 -31 132 -83 190 -115 183 -101 189 -105
183 -120 -20 -53 -247 -119 -284 -83 -30 30 -139 98 -269 168 -185 100 -265
156 -252 177 4 6 27 21 52 33 25 11 56 28 70 35 26 15 91 13 146 -3z m-1436
-722 c44 -41 406 -313 483 -363 32 -22 61 -45 63 -52 3 -7 4 -35 2 -63 l-3
-51 -32 16 c-18 8 -61 41 -95 72 -35 31 -101 86 -148 121 -47 36 -87 68 -90
71 -5 5 -176 134 -245 184 -21 15 -28 29 -30 60 -3 60 2 67 33 50 15 -7 43
-28 62 -45z"/>
</g>
</svg>
